<?xml version="1.0" standalone="no"?>
<!DOCTYPE svg PUBLIC "-//W3C//DTD SVG 20010904//EN"
 "http://www.w3.org/TR/2001/REC-SVG-20010904/DTD/svg10.dtd">
<svg version="1.0" xmlns="http://www.w3.org/2000/svg"
 width="500.000000pt" height="500.000000pt" viewBox="0 0 500.000000 500.000000"
 preserveAspectRatio="xMidYMid meet">
<metadata>
Created by potrace 1.15, written by Peter Selinger 2001-2017
</metadata>
<g transform="translate(0.000000,500.000000) scale(0.100000,-0.100000)"
fill="#000000" stroke="none">
<path d="M0 2500 l0 -2500 2500 0 2500 0 0 2500 0 2500 -2500 0 -2500 0 0
-2500z m1865 255 c131 -64 218 -226 200 -371 l-6 -54 -246 0 -245 0 14 -22 c8
-13 39 -38 68 -55 47 -29 63 -33 120 -33 37 0 89 7 116 15 27 8 52 15 56 15 4
0 21 -27 38 -59 l30 -60 -53 -24 c-302 -142 -641 76 -586 377 26 146 131 261
273 297 56 15 165 2 221 -26z m1490 1 c76 -34 139 -97 178 -175 29 -59 32 -74
32 -156 0 -82 -3 -97 -32 -156 -39 -79 -102 -140 -181 -177 -47 -22 -71 -27
-142 -27 -74 0 -93 4 -144 29 -76 37 -140 101 -174 174 -24 50 -27 70 -27 157
0 87 3 107 27 157 44 95 138 172 242 199 54 14 162 2 221 -25z m-2485 -76 c33
-49 62 -90 64 -90 2 0 30 40 62 90 l59 90 117 0 118 0 -116 -156 c-63 -85
-118 -162 -120 -169 -4 -10 124 -192 249 -352 7 -10 -16 -13 -109 -13 l-119 0
-69 105 c-38 58 -71 105 -75 105 -3 0 -37 -48 -75 -105 l-69 -105 -119 0 -118
0 135 180 135 180 -113 152 c-62 84 -116 159 -121 166 -5 9 19 12 108 12 l115
0 61 -90z m1474 66 l16 -25 47 22 c56 25 165 29 227 8 52 -18 115 -76 140
-131 19 -41 21 -66 24 -292 l4 -248 -96 0 -96 0 0 210 c0 234 -7 267 -59 294
-37 20 -81 20 -126 2 -60 -25 -65 -48 -65 -291 l0 -215 -95 0 -95 0 0 345 0
345 79 0 c72 0 80 -2 95 -24z m1456 16 c0 -5 6 -16 13 -25 11 -16 15 -16 57 5
71 35 178 32 256 -7 47 -24 65 -41 90 -83 17 -28 34 -69 38 -89 3 -21 6 -138
6 -260 l0 -223 -95 0 -95 0 0 215 c0 174 -3 222 -15 245 -35 69 -140 79 -199
21 l-31 -31 -3 -225 -3 -225 -95 0 -94 0 0 345 0 345 85 0 c47 0 85 -4 85 -8z"/>
<path d="M1670 2609 c-42 -17 -110 -93 -110 -124 0 -3 72 -5 159 -5 l160 0
-10 28 c-30 83 -123 131 -199 101z"/>
<path d="M3160 2609 c-80 -32 -127 -135 -109 -236 33 -175 251 -195 316 -28
56 145 -77 316 -207 264z"/>
</g>
</svg>
